<?xml version="1.0" encoding="UTF-8" standalone="no"?>
<svg
   width="200"
   height="200"
   stroke-width="1.5"
   viewBox="0 0 200 200"
   fill="none"
   color="#000000"
   version="1.1"
   id="svg10"
   sodipodi:docname="image-not-found.svg"
   inkscape:version="1.2.2 (732a01da63, 2022-12-09)"
   xmlns:inkscape="http://www.inkscape.org/namespaces/inkscape"
   xmlns:sodipodi="http://sodipodi.sourceforge.net/DTD/sodipodi-0.dtd"
   xmlns="http://www.w3.org/2000/svg"
   xmlns:svg="http://www.w3.org/2000/svg">
  <defs
     id="defs14" />
  <sodipodi:namedview
     id="namedview12"
     pagecolor="#ffffff"
     bordercolor="#000000"
     borderopacity="0.25"
     inkscape:showpageshadow="2"
     inkscape:pageopacity="0.0"
     inkscape:pagecheckerboard="0"
     inkscape:deskcolor="#d1d1d1"
     showgrid="false"
     inkscape:zoom="2.8284271"
     inkscape:cx="105.71246"
     inkscape:cy="132.05219"
     inkscape:window-width="1920"
     inkscape:window-height="1001"
     inkscape:window-x="-9"
     inkscape:window-y="-9"
     inkscape:window-maximized="1"
     inkscape:current-layer="svg10" />
  <g
     id="g1619">
    <g
       id="g1594"
       transform="translate(7.8935,7.8935)"
       style="stroke:#fdfdfd;stroke-opacity:1;stroke-width:15;stroke-dasharray:none">
      <path
         d="m 1.5,131.5 70,-30 40,18.182"
         stroke="#000000"
         stroke-width="15"
         stroke-linecap="round"
         stroke-linejoin="round"
         id="path1586"
         style="stroke-width:15;stroke-dasharray:none;stroke:#fdfdfd;stroke-opacity:1" />
      <path
         d="m 131.5,71.5 c -11.046,0 -20,-8.9543 -20,-20 0,-11.0457 8.954,-20 20,-20 11.046,0 20,8.9543 20,20 0,11.0457 -8.954,20 -20,20 z"
         stroke="#000000"
         stroke-width="15"
         stroke-linecap="round"
         stroke-linejoin="round"
         id="path1588"
         style="stroke-width:15;stroke-dasharray:none;stroke:#fdfdfd;stroke-opacity:1" />
      <path
         d="M 140.286,182.713 161.5,161.5 M 182.713,140.287 161.5,161.5 m 0,0 -21.214,-21.213 m 21.214,21.213 21.213,21.213"
         stroke="#000000"
         stroke-width="15"
         stroke-linecap="round"
         stroke-linejoin="round"
         id="path1590"
         style="stroke-width:15;stroke-dasharray:none;stroke:#fdfdfd;stroke-opacity:1" />
      <path
         d="m 101.5,181.5 h -94 c -3.3137,0 -6,-2.686 -6,-6 V 7.5 c 0,-3.3137 2.6863,-6 6,-6 h 168 c 3.314,0 6,2.6863 6,6 v 94"
         stroke="#000000"
         stroke-width="15"
         stroke-linecap="round"
         stroke-linejoin="round"
         id="path1592"
         style="stroke-width:15;stroke-dasharray:none;stroke:#fdfdfd;stroke-opacity:1" />
    </g>
    <g
       id="g1584"
       transform="translate(7.8935,7.8935)">
      <path
         d="m 1.5,131.5 70,-30 40,18.182"
         stroke="#000000"
         stroke-width="15"
         stroke-linecap="round"
         stroke-linejoin="round"
         id="path2"
         style="stroke-width:3;stroke-dasharray:none" />
      <path
         d="m 131.5,71.5 c -11.046,0 -20,-8.9543 -20,-20 0,-11.0457 8.954,-20 20,-20 11.046,0 20,8.9543 20,20 0,11.0457 -8.954,20 -20,20 z"
         stroke="#000000"
         stroke-width="15"
         stroke-linecap="round"
         stroke-linejoin="round"
         id="path4"
         style="stroke-width:3;stroke-dasharray:none" />
      <path
         d="M 140.286,182.713 161.5,161.5 M 182.713,140.287 161.5,161.5 m 0,0 -21.214,-21.213 m 21.214,21.213 21.213,21.213"
         stroke="#000000"
         stroke-width="15"
         stroke-linecap="round"
         stroke-linejoin="round"
         id="path6"
         style="stroke-width:3;stroke-dasharray:none" />
      <path
         d="m 101.5,181.5 h -94 c -3.3137,0 -6,-2.686 -6,-6 V 7.5 c 0,-3.3137 2.6863,-6 6,-6 h 168 c 3.314,0 6,2.6863 6,6 v 94"
         stroke="#000000"
         stroke-width="15"
         stroke-linecap="round"
         stroke-linejoin="round"
         id="path8"
         style="stroke-width:3;stroke-dasharray:none" />
    </g>
  </g>
</svg>
