<?xml version="1.0" encoding="UTF-8" standalone="no"?>
<!-- Created with Inkscape (http://www.inkscape.org/) -->

<svg
   width="417.75006"
   height="386.06073"
   viewBox="0 0 110.52971 102.14524"
   version="1.1"
   id="svg12"
   inkscape:version="1.2.2 (732a01da63, 2022-12-09)"
   sodipodi:docname="pretext-color.svg"
   inkscape:export-filename="pretext-color.png"
   inkscape:export-xdpi="96"
   inkscape:export-ydpi="96"
   xml:space="preserve"
   xmlns:inkscape="http://www.inkscape.org/namespaces/inkscape"
   xmlns:sodipodi="http://sodipodi.sourceforge.net/DTD/sodipodi-0.dtd"
   xmlns="http://www.w3.org/2000/svg"
   xmlns:svg="http://www.w3.org/2000/svg"><sodipodi:namedview
     id="namedview14"
     pagecolor="#ffffff"
     bordercolor="#666666"
     borderopacity="1.0"
     inkscape:pageshadow="2"
     inkscape:pageopacity="0.0"
     inkscape:pagecheckerboard="0"
     inkscape:document-units="mm"
     showgrid="false"
     units="px"
     height="1e-05px"
     inkscape:zoom="1.28"
     inkscape:cx="387.10938"
     inkscape:cy="248.82813"
     inkscape:window-width="1920"
     inkscape:window-height="1001"
     inkscape:window-x="-9"
     inkscape:window-y="-9"
     inkscape:window-maximized="1"
     inkscape:current-layer="g8695"
     inkscape:showpageshadow="2"
     inkscape:deskcolor="#d1d1d1" /><defs
     id="defs9"><inkscape:path-effect
       effect="mirror_symmetry"
       start_point="132.6344,-77.524968"
       end_point="132.6344,1.5136171"
       center_point="132.6344,-38.005675"
       id="path-effect6889"
       is_visible="true"
       lpeversion="1.2"
       lpesatellites=""
       mode="free"
       discard_orig_path="false"
       fuse_paths="false"
       oposite_fuse="false"
       split_items="false"
       split_open="false"
       link_styles="false" /><inkscape:path-effect
       effect="mirror_symmetry"
       start_point="178.76587,-7.1125216"
       end_point="178.76587,68.453761"
       center_point="178.76587,30.67062"
       id="path-effect2775"
       is_visible="true"
       lpeversion="1.2"
       lpesatellites=""
       mode="free"
       discard_orig_path="false"
       fuse_paths="false"
       oposite_fuse="false"
       split_items="false"
       split_open="false"
       link_styles="false" /></defs><g
     inkscape:label="Layer 1"
     inkscape:groupmode="layer"
     id="layer1"
     transform="translate(-8.6237273,13.465576)"><g
       id="g7389"
       transform="translate(-2.2737627,65.698325)"><g
         id="g8743"
         transform="translate(0,-9.6832989)"><g
           id="g8695"
           transform="translate(-114.70091)"><g
             id="g8927"
             transform="translate(-116.7019,24.573193)"><g
               aria-label="&lt;PreTeXt/&gt;"
               id="g8889"
               style="font-style:italic;font-size:15.8291px;line-height:1.25;font-family:Arial;-inkscape-font-specification:'Arial Italic';fill:#4e6172;stroke:#ffffff;stroke-width:2;stroke-dasharray:none;stroke-opacity:1"
               transform="translate(210.02952,-124.53756)"><g
                 aria-label="&lt;PreTeXt/&gt;"
                 id="text8887"
                 style="font-size:16.9333px;font-family:'Segoe Script';-inkscape-font-specification:'Segoe Script';stroke:#ffffff;stroke-width:2;stroke-linecap:round;stroke-linejoin:round;stroke-dasharray:none;stroke-opacity:1"><path
                   d="m 40.026481,124.84907 5.490094,3.0427 q 0.41341,0.23151 0.545702,0.41341 0.14056,0.1819 0.14056,0.46302 0,0.35553 -0.256315,0.62012 -0.256315,0.25631 -0.595311,0.25631 -0.223242,0 -0.669726,-0.24805 l -8.177262,-4.54751 8.177262,-4.54752 q 0.446484,-0.23978 0.661457,-0.23978 0.347265,0 0.60358,0.25632 0.256315,0.25631 0.256315,0.61184 0,0.28112 -0.14056,0.46302 -0.132292,0.18191 -0.545702,0.41342 z"
                   style="font-style:normal;font-weight:bold;font-family:'Courier New';-inkscape-font-specification:'Courier New Bold';stroke:#ffffff;stroke-width:2;stroke-dasharray:none;stroke-opacity:1"
                   id="path8891" /><path
                   d="m 50.981863,126.23813 v 1.74459 h 1.71152 q 0.611848,0 0.868163,0.23978 0.264583,0.23151 0.264583,0.61185 0,0.37207 -0.264583,0.61184 -0.256315,0.23151 -0.868163,0.23151 h -3.671086 q -0.611848,0 -0.876431,-0.23151 -0.256314,-0.23977 -0.256314,-0.62011 0,-0.37207 0.264583,-0.60358 0.264582,-0.23978 0.868162,-0.23978 h 0.264583 v -6.63111 h -0.264583 q -0.611848,0 -0.876431,-0.23151 -0.256314,-0.23977 -0.256314,-0.62011 0,-0.38034 0.256314,-0.61185 0.264583,-0.23978 0.876431,-0.23978 l 3.902596,0.008 q 1.719789,0 2.720242,0.94258 1.008722,0.9343 1.008722,2.28202 0,0.74414 -0.338996,1.4056 -0.256315,0.49609 -0.859894,0.98392 -0.595312,0.47955 -1.223696,0.7276 -0.620116,0.23978 -1.645374,0.23978 z m 0,-1.69499 h 1.570961 q 1.10794,0 1.752861,-0.49609 0.653189,-0.50436 0.653189,-1.20716 0,-0.59531 -0.529166,-1.04179 -0.520897,-0.44649 -1.496546,-0.44649 h -1.951299 z"
                   style="font-style:normal;font-weight:bold;font-family:'Courier New';-inkscape-font-specification:'Courier New Bold';stroke:#ffffff;stroke-width:2;stroke-dasharray:none;stroke-opacity:1"
                   id="path8893" /><path
                   d="m 61.771881,122.17017 v 1.05833 q 1.0666,-0.76895 1.678447,-1.02526 0.620116,-0.25632 1.15755,-0.25632 0.826821,0 1.604033,0.61185 0.529166,0.41341 0.529166,0.84336 0,0.3638 -0.256315,0.62012 -0.248046,0.24804 -0.603579,0.24804 -0.314192,0 -0.661457,-0.31419 -0.347265,-0.31419 -0.620116,-0.31419 -0.355533,0 -1.0666,0.44648 -0.702798,0.44649 -1.761129,1.33945 v 2.55488 h 2.414318 q 0.611848,0 0.868163,0.23978 0.264582,0.23151 0.264582,0.61185 0,0.37207 -0.264582,0.61184 -0.256315,0.23151 -0.868163,0.23151 h -5.118024 q -0.611847,0 -0.87643,-0.23151 -0.256315,-0.23977 -0.256315,-0.62011 0,-0.37207 0.256315,-0.60358 0.264583,-0.23978 0.87643,-0.23978 h 1.008722 v -4.11757 H 59.46505 q -0.611848,0 -0.876431,-0.23151 -0.256314,-0.23978 -0.256314,-0.62012 0,-0.37207 0.256314,-0.60358 0.264583,-0.23977 0.876431,-0.23977 z"
                   style="font-style:normal;font-weight:bold;font-family:'Courier New';-inkscape-font-specification:'Courier New Bold';stroke:#ffffff;stroke-width:2;stroke-dasharray:none;stroke-opacity:1"
                   id="path8895" /><path
                   d="m 76.53891,126.78383 h -6.953567 q 0.264583,0.66146 0.934308,1.0666 0.677994,0.40514 1.827275,0.40514 0.942576,0 2.505269,-0.40514 0.64492,-0.16537 0.892967,-0.16537 0.338996,0 0.570506,0.23978 0.23151,0.23978 0.23151,0.60358 0,0.33073 -0.248046,0.56224 -0.330729,0.30592 -1.612302,0.58704 -1.281573,0.27285 -2.463927,0.27285 -2.03398,0 -3.257676,-1.14928 -1.215427,-1.14928 -1.215427,-2.82773 0,-1.78593 1.314646,-2.90214 1.322914,-1.12448 3.042702,-1.12448 1.033527,0 1.893421,0.36381 0.868162,0.3638 1.289841,0.78548 0.595311,0.61184 0.983917,1.51308 0.264583,0.62838 0.264583,1.4552 z m -1.876884,-1.69498 q -0.388606,-0.72761 -1.01699,-1.08314 -0.628385,-0.3638 -1.496547,-0.3638 -0.859894,0 -1.488278,0.3638 -0.628384,0.35553 -1.025259,1.08314 z"
                   style="font-style:normal;font-weight:bold;font-family:'Courier New';-inkscape-font-specification:'Courier New Bold';stroke:#ffffff;stroke-width:2;stroke-dasharray:none;stroke-opacity:1"
                   id="path8897" /><path
                   d="m 83.269234,121.35161 v 6.63111 h 1.141014 q 0.611847,0 0.868162,0.23978 0.264583,0.23151 0.264583,0.61185 0,0.37207 -0.264583,0.61184 -0.256315,0.23151 -0.868162,0.23151 h -3.968743 q -0.611847,0 -0.87643,-0.23151 -0.256315,-0.23977 -0.256315,-0.62011 0,-0.37207 0.256315,-0.60358 0.264583,-0.23978 0.87643,-0.23978 h 1.132746 v -6.63111 h -1.835544 v 1.60404 q 0,0.61184 -0.239778,0.87643 -0.23151,0.25631 -0.611848,0.25631 -0.372069,0 -0.611847,-0.25631 -0.23151,-0.26459 -0.23151,-0.87643 v -3.30729 l 8.780842,0.008 v 3.29902 q 0,0.61184 -0.239778,0.87643 -0.23151,0.25631 -0.611848,0.25631 -0.37207,0 -0.611848,-0.25631 -0.23151,-0.26459 -0.23151,-0.87643 v -1.60404 z"
                   style="font-style:normal;font-weight:bold;font-family:'Courier New';-inkscape-font-specification:'Courier New Bold';stroke:#ffffff;stroke-width:2;stroke-dasharray:none;stroke-opacity:1"
                   id="path8899" /><path
                   d="m 96.862175,126.78383 h -6.953567 q 0.264583,0.66146 0.934308,1.0666 0.677994,0.40514 1.827275,0.40514 0.942577,0 2.505269,-0.40514 0.64492,-0.16537 0.892967,-0.16537 0.338996,0 0.570506,0.23978 0.23151,0.23978 0.23151,0.60358 0,0.33073 -0.248046,0.56224 -0.330729,0.30592 -1.612302,0.58704 -1.281573,0.27285 -2.463927,0.27285 -2.03398,0 -3.257676,-1.14928 -1.215427,-1.14928 -1.215427,-2.82773 0,-1.78593 1.314646,-2.90214 1.322914,-1.12448 3.042702,-1.12448 1.033527,0 1.893421,0.36381 0.868162,0.3638 1.289841,0.78548 0.595311,0.61184 0.983917,1.51308 0.264583,0.62838 0.264583,1.4552 z m -1.876884,-1.69498 q -0.388606,-0.72761 -1.01699,-1.08314 -0.628385,-0.3638 -1.496547,-0.3638 -0.859894,0 -1.488278,0.3638 -0.628384,0.35553 -1.025259,1.08314 z"
                   style="font-style:normal;font-weight:bold;font-family:'Courier New';-inkscape-font-specification:'Courier New Bold';stroke:#ffffff;stroke-width:2;stroke-dasharray:none;stroke-opacity:1"
                   id="path8901" /><path
                   d="m 103.88189,124.56795 2.82773,3.41477 q 0.50436,0.008 0.75241,0.24805 0.25631,0.23151 0.25631,0.60358 0,0.37207 -0.26458,0.61184 -0.25632,0.23151 -0.86816,0.23151 h -1.90996 q -0.60358,0 -0.86816,-0.23151 -0.25632,-0.23977 -0.25632,-0.62011 0,-0.35554 0.23978,-0.58705 0.23978,-0.23977 0.71933,-0.25631 l -1.70325,-2.10013 -1.71979,2.10013 q 0.47129,0.0165 0.71107,0.25631 0.23978,0.23978 0.23978,0.59532 0,0.37207 -0.26458,0.61184 -0.25632,0.23151 -0.86817,0.23151 h -1.901685 q -0.611848,0 -0.876431,-0.23151 -0.256314,-0.23977 -0.256314,-0.62011 0,-0.3638 0.256314,-0.60358 0.256315,-0.23978 0.752408,-0.23978 l 2.811188,-3.43131 -2.678897,-3.1998 q -0.496093,-0.0165 -0.744139,-0.24804 -0.239778,-0.23978 -0.239778,-0.60358 0,-0.38034 0.256315,-0.61185 0.264582,-0.23978 0.87643,-0.23978 l 1.562689,0.008 q 0.61185,0 0.86817,0.23151 0.26458,0.23151 0.26458,0.61185 0,0.28112 -0.16537,0.51263 -0.10748,0.14056 -0.47955,0.33899 l 1.57923,1.89342 1.54615,-1.89342 q -0.37207,-0.19843 -0.47955,-0.33899 -0.16537,-0.23151 -0.16537,-0.51263 0,-0.37207 0.25632,-0.61185 0.26458,-0.23978 0.87643,-0.23978 l 1.55442,0.008 q 0.61185,0 0.86816,0.23151 0.26459,0.23151 0.26459,0.61185 0,0.3638 -0.25632,0.60358 -0.24804,0.23978 -0.7276,0.24804 z"
                   style="font-style:normal;font-weight:bold;font-family:'Courier New';-inkscape-font-specification:'Courier New Bold';stroke:#ffffff;stroke-width:2;stroke-dasharray:none;stroke-opacity:1"
                   id="path8903" /><path
                   d="m 112.5139,123.86515 v 3.39824 q 0,0.5457 0.22324,0.71933 0.34727,0.27285 1.24023,0.27285 1.29811,0 2.39779,-0.55397 0.42167,-0.21497 0.66145,-0.21497 0.33073,0 0.57051,0.24804 0.24805,0.24805 0.24805,0.60358 0,0.33073 -0.26459,0.57051 -0.40514,0.38861 -1.60403,0.71933 -1.19062,0.32246 -2.00918,0.32246 -1.57923,0 -2.37297,-0.67799 -0.78548,-0.68626 -0.78548,-1.67845 v -3.72896 h -0.61185 q -0.61185,0 -0.87643,-0.23151 -0.25632,-0.23978 -0.25632,-0.62012 0,-0.37207 0.25632,-0.60358 0.26458,-0.23977 0.87643,-0.23977 h 0.61185 v -1.52962 q 0,-0.61185 0.23151,-0.86817 0.23977,-0.26458 0.62011,-0.26458 0.37207,0 0.60358,0.26458 0.23978,0.25632 0.23978,0.86817 v 1.52962 h 3.13365 q 0.61185,0 0.86817,0.23977 0.26458,0.23151 0.26458,0.61185 0,0.37207 -0.26458,0.61185 -0.25632,0.23151 -0.86817,0.23151 z"
                   style="font-style:normal;font-weight:bold;font-family:'Courier New';-inkscape-font-specification:'Courier New Bold';stroke:#ffffff;stroke-width:2;stroke-dasharray:none;stroke-opacity:1"
                   id="path8905" /><path
                   d="m 126.5864,119.17707 -5.43221,11.70779 q -0.20671,0.43822 -0.37207,0.57051 -0.21498,0.17363 -0.5209,0.17363 -0.34727,0 -0.60358,-0.24804 -0.24805,-0.24805 -0.24805,-0.56224 0,-0.22324 0.19844,-0.65319 l 5.44875,-11.69952 q 0.20671,-0.43822 0.3638,-0.57051 0.22324,-0.17363 0.5209,-0.17363 0.34727,0 0.59531,0.24804 0.24805,0.23978 0.24805,0.55397 0,0.22325 -0.19844,0.65319 z"
                   style="font-style:normal;font-weight:bold;font-family:'Courier New';-inkscape-font-specification:'Courier New Bold';stroke:#ffffff;stroke-width:2;stroke-dasharray:none;stroke-opacity:1"
                   id="path8907" /><path
                   d="m 135.04479,124.84907 -5.4901,-3.0427 q -0.41341,-0.23151 -0.55397,-0.41342 -0.13229,-0.1819 -0.13229,-0.46302 0,-0.35553 0.25632,-0.61184 0.25631,-0.25632 0.60357,-0.25632 0.21498,0 0.66146,0.23978 l 8.17726,4.54752 -8.17726,4.54751 q -0.44648,0.24805 -0.66146,0.24805 -0.34726,0 -0.60357,-0.25631 -0.25632,-0.25632 -0.25632,-0.62012 0,-0.28112 0.13229,-0.46302 0.14056,-0.1819 0.55397,-0.41341 z"
                   style="font-style:normal;font-weight:bold;font-family:'Courier New';-inkscape-font-specification:'Courier New Bold';stroke:#ffffff;stroke-width:2;stroke-dasharray:none;stroke-opacity:1"
                   id="path8909" /></g></g><g
               aria-label="&lt;PreTeXt/&gt;"
               id="text1312"
               style="font-style:italic;font-size:15.8291px;line-height:1.25;font-family:Arial;-inkscape-font-specification:'Arial Italic';fill:#4e6172;stroke-width:0.247"
               transform="translate(210.02952,-124.53756)"><text
                 xml:space="preserve"
                 style="font-size:16.9333px;font-family:'Segoe Script';-inkscape-font-specification:'Segoe Script';fill:#4e6172;fill-opacity:1;stroke:#ffffff;stroke-width:4.99999;stroke-linecap:round;stroke-linejoin:round;stroke-dasharray:none;stroke-opacity:1"
                 x="36.719196"
                 y="129.6777"
                 id="text8323"><tspan
                   sodipodi:role="line"
                   id="tspan8321"
                   style="font-style:normal;font-variant:normal;font-weight:bold;font-stretch:normal;font-family:'Courier New';-inkscape-font-specification:'Courier New Bold';fill:#4e6172;fill-opacity:1;stroke:none;stroke-width:5;stroke-opacity:1"
                   x="36.719196"
                   y="129.6777">&lt;PreTeXt/&gt;</tspan></text></g></g></g><g
           id="g8711"
           transform="translate(-115.3418)"><g
             id="g8646"
             transform="translate(115.3418,10.128581)"
             style="stroke:#ffffff;stroke-width:5;stroke-dasharray:none;stroke-opacity:1"><path
               style="fill:#000000;fill-opacity:0;stroke:#ffffff;stroke-width:5;stroke-linecap:round;stroke-linejoin:round;stroke-dasharray:none;stroke-opacity:1"
               d="M 126.00102,-7.1125216 V 68.453761 c 12.87303,-8.948543 38.87728,-8.249552 50.42624,0 h 2.33861 M 231.53072,-7.1125216 V 68.453761 c -12.87303,-8.948543 -38.87728,-8.249552 -50.42624,0 h -2.33861"
               id="path8634"
               sodipodi:nodetypes="cccc"
               transform="translate(-112.60353,-63.424976)" /><path
               style="fill:#ffffff;fill-opacity:1;stroke:#ffffff;stroke-width:5;stroke-linecap:round;stroke-linejoin:round;stroke-dasharray:none;stroke-opacity:1"
               d="m 132.6344,-70.626682 c -5.5793,-4.326525 -25.49392,-12.412308 -47.955359,-1.240234 v 70.4866521 c 30.028029,-8.316292 37.826779,-0.551215 47.955359,2.893881 m 0,-72.1402991 c 5.5793,-4.326525 25.49392,-12.412308 47.95536,-1.240234 v 70.4866521 c -30.02803,-8.316292 -37.82678,-0.551215 -47.95536,2.893881"
               id="path8636"
               sodipodi:nodetypes="cccc"
               transform="translate(-66.47206,0.41341111)" /><g
               id="g8644"
               transform="translate(-122.21099,-35.139974)"
               style="stroke:#ffffff;stroke-width:5;stroke-dasharray:none;stroke-opacity:1"><path
                 id="path8638"
                 style="fill:none;stroke:#ffffff;stroke-width:5;stroke-linecap:round;stroke-dasharray:none;stroke-opacity:1"
                 d="M 196.29375,-25.656749 179.93282,21.657595" /><path
                 id="path8640"
                 style="fill:none;stroke:#ffffff;stroke-width:5;stroke-linecap:round;stroke-dasharray:none;stroke-opacity:1"
                 d="M 167.66521,-22.157021 153.06032,-2.8776003 167.66521,16.40182" /><path
                 id="path8642"
                 style="fill:none;stroke:#ffffff;stroke-width:5;stroke-linecap:round;stroke-dasharray:none;stroke-opacity:1"
                 d="M 209.06838,-22.157021 223.68563,-2.8776003 209.06838,16.40182" /></g></g><g
             id="g7369"
             transform="translate(115.3418,10.128581)"><path
               style="fill:#000000;fill-opacity:0;stroke:#c7b570;stroke-width:2;stroke-linecap:round;stroke-linejoin:round;stroke-opacity:1"
               d="M 126.00102,-7.1125216 V 68.453761 c 12.87303,-8.948543 38.87728,-8.249552 50.42624,0 h 2.33861 M 231.53072,-7.1125216 V 68.453761 c -12.87303,-8.948543 -38.87728,-8.249552 -50.42624,0 h -2.33861"
               id="path438"
               sodipodi:nodetypes="cccc"
               inkscape:path-effect="#path-effect2775"
               inkscape:original-d="M 126.00102,-7.1125216 V 68.453761 c 12.87303,-8.948543 38.87728,-8.249552 50.42624,0 h 2.33861"
               class="UnoptimicedTransforms"
               transform="translate(-112.60353,-63.424976)" /><path
               style="fill:#ffffff;fill-opacity:1;stroke:#000000;stroke-width:2;stroke-linecap:round;stroke-linejoin:round;stroke-opacity:1"
               d="m 132.6344,-70.626682 c -5.5793,-4.326525 -25.49392,-12.412308 -47.955359,-1.240234 v 70.4866521 c 30.028029,-8.316292 37.826779,-0.551215 47.955359,2.893881 m 0,-72.1402991 c 5.5793,-4.326525 25.49392,-12.412308 47.95536,-1.240234 v 70.4866521 c -30.02803,-8.316292 -37.82678,-0.551215 -47.95536,2.893881"
               id="path2857"
               sodipodi:nodetypes="cccc"
               inkscape:path-effect="#path-effect6889"
               inkscape:original-d="m 132.6344,-70.626682 c -5.5793,-4.326525 -25.49392,-12.412308 -47.955359,-1.240234 v 70.4866521 c 30.028029,-8.316292 37.826779,-0.551215 47.955359,2.893881"
               class="UnoptimicedTransforms"
               transform="translate(-66.47206,0.41341111)" /><g
               id="g7361"
               transform="translate(-122.21099,-35.139974)"><path
                 id="polyline68"
                 style="fill:none;stroke:#4e6172;stroke-width:3.70996;stroke-linecap:round"
                 d="M 196.29375,-25.656749 179.93282,21.657595" /><path
                 id="polyline76"
                 style="fill:none;stroke:#4e6172;stroke-width:3.70996;stroke-linecap:round"
                 d="M 167.66521,-22.157021 153.06032,-2.8776003 167.66521,16.40182" /><path
                 id="polyline78"
                 style="fill:none;stroke:#4e6172;stroke-width:3.70996;stroke-linecap:round"
                 d="M 209.06838,-22.157021 223.68563,-2.8776003 209.06838,16.40182" /></g></g></g></g></g></g></svg>
